<?xml version="1.0" encoding="UTF-8" standalone="no"?>
<!DOCTYPE svg PUBLIC "-//W3C//DTD SVG 1.1//EN" "http://www.w3.org/Graphics/SVG/1.1/DTD/svg11.dtd">
<svg version="1.1" xmlns="http://www.w3.org/2000/svg" xmlns:xlink="http://www.w3.org/1999/xlink" preserveAspectRatio="xMidYMid meet" viewBox="113.84552406657684 130.50825910931172 260 259.99999999999994" width="256" height="256"><defs><path d="M329.82 131.51C352.48 131.51 370.85 149.88 370.85 172.54C370.85 215.53 370.85 303.48 370.85 346.48C370.85 369.14 352.48 387.51 329.82 387.51C286.82 387.51 198.87 387.51 155.88 387.51C133.22 387.51 114.85 369.14 114.85 346.48C114.85 303.48 114.85 215.53 114.85 172.54C114.85 149.88 133.22 131.51 155.88 131.51C198.87 131.51 286.82 131.51 329.82 131.51Z" id="i9L0LDQCTs"></path><clipPath id="clipamykDztMP"><use xlink:href="#i9L0LDQCTs" opacity="1"></use></clipPath><path d="M284.74 226.93C284.74 260.04 257.85 286.93 224.74 286.93C191.62 286.93 164.74 260.04 164.74 226.93C164.74 193.81 191.62 166.93 224.74 166.93C257.85 166.93 284.74 193.81 284.74 226.93Z" id="bM7ToLecw"></path><path d="M274.74 226.93C274.74 254.53 252.33 276.93 224.74 276.93C197.14 276.93 174.74 254.53 174.74 226.93C174.74 199.33 197.14 176.93 224.74 176.93C252.33 176.93 274.74 199.33 274.74 226.93Z" id="a3Qi2ArT7v"></path><path d="M309.52 347.21L254.77 277.16L263.48 270.36L318.22 340.4L309.52 347.21Z" id="b3Z6SyzqID"></path></defs><g><g><use xlink:href="#i9L0LDQCTs" opacity="1" fill="#ffffff" fill-opacity="1"></use><g clip-path="url(#clipamykDztMP)"><use xlink:href="#i9L0LDQCTs" opacity="1" fill-opacity="0" stroke="#a9ce14" stroke-width="0" stroke-opacity="1"></use></g></g><g><use xlink:href="#bM7ToLecw" opacity="1" fill="#8c97fa" fill-opacity="1"></use><g><use xlink:href="#bM7ToLecw" opacity="1" fill-opacity="0" stroke="#8c97fa" stroke-width="1" stroke-opacity="1"></use></g></g><g><use xlink:href="#a3Qi2ArT7v" opacity="1" fill="#ffffff" fill-opacity="1"></use></g><g><use xlink:href="#b3Z6SyzqID" opacity="1" fill="#8c97fa" fill-opacity="1"></use></g></g></svg>